<svg width="36" height="36" viewBox="0 0 36 36" fill="none" xmlns="http://www.w3.org/2000/svg">
<path d="M18 9C16.8875 9 15.7999 9.3299 14.8749 9.94798C13.9499 10.5661 13.2289 11.4446 12.8032 12.4724C12.3774 13.5002 12.266 14.6312 12.4831 15.7224C12.7001 16.8135 13.2359 17.8158 14.0225 18.6025C14.8092 19.3891 15.8115 19.9249 16.9026 20.1419C17.9938 20.359 19.1248 20.2476 20.1526 19.8218C21.1804 19.3961 22.0589 18.6751 22.677 17.7501C23.2951 16.8251 23.625 15.7375 23.625 14.625C23.625 13.1332 23.0324 11.7024 21.9775 10.6475C20.9226 9.59263 19.4918 9 18 9Z" fill="#F8F8F8"/>
<path d="M18 2.25C14.8849 2.25 11.8398 3.17372 9.24977 4.90435C6.65969 6.63499 4.64098 9.0948 3.4489 11.9727C2.25682 14.8507 1.94491 18.0175 2.55263 21.0727C3.16035 24.1279 4.66039 26.9343 6.86307 29.1369C9.06574 31.3396 11.8721 32.8397 14.9273 33.4474C17.9825 34.0551 21.1493 33.7432 24.0273 32.5511C26.9052 31.359 29.365 29.3403 31.0956 26.7502C32.8263 24.1602 33.75 21.1151 33.75 18C33.7452 13.8243 32.0843 9.821 29.1317 6.86833C26.179 3.91566 22.1757 2.25476 18 2.25V2.25ZM26.991 28.0418C26.9686 26.5661 26.3674 25.1584 25.3169 24.1218C24.2664 23.0852 22.8508 22.5028 21.375 22.5H14.625C13.1492 22.5028 11.7336 23.0852 10.6831 24.1218C9.63263 25.1584 9.03142 26.5661 9.009 28.0418C6.96888 26.2201 5.5302 23.8217 4.88344 21.1642C4.23668 18.5068 4.41236 15.7155 5.38722 13.1601C6.36207 10.6047 8.09012 8.40563 10.3425 6.85414C12.595 5.30265 15.2655 4.4719 18.0006 4.4719C20.7356 4.4719 23.4062 5.30265 25.6586 6.85414C27.911 8.40563 29.639 10.6047 30.6139 13.1601C31.5888 15.7155 31.7644 18.5068 31.1177 21.1642C30.4709 23.8217 29.0322 26.2201 26.9921 28.0418H26.991Z" fill="#F8F8F8"/>
</svg>
